<svg
  width="228"
  height="56"
  viewBox="0 0 228 56"
  fill="none"
  xmlns="http://www.w3.org/2000/svg"
>
<path
    d="M12.2782 25.6543H10.0248C7.13583 25.6543 4.76685 24.7587 2.91789 22.9964C0.98226 20.9741 0 18.4896 0 15.6006V3.29346C0 2.39787 0.31779 1.61784 0.98226 0.98226C1.64673 0.31779 2.39787 0 3.29346 0C4.24683 0 5.02686 0.31779 5.66244 0.98226C6.32691 1.61784 6.67359 2.39787 6.67359 3.29346V15.6006C6.67359 16.2362 6.78915 16.9295 7.04916 17.6518C7.59807 18.5185 8.49366 18.9807 9.8226 18.9807H10.8915H32.1835C35.1013 18.9807 37.4703 19.8763 39.2904 21.6386C41.226 23.6609 42.2083 26.1454 42.2083 29.0344V52.5798C42.2083 53.4754 41.8905 54.2265 41.226 54.891C40.5904 55.5266 39.8104 55.8733 38.9437 55.8733C37.9903 55.8733 37.1814 55.5266 36.5458 54.891C35.8814 54.2265 35.5636 53.4754 35.5636 52.5798V29.0344C35.5636 28.3989 35.4191 27.7055 35.188 27.0121C34.6391 26.1166 33.7146 25.6543 32.4146 25.6543H12.2782Z"
    fill="white"
  />
<path
    d="M6.67359 42.4974V52.58C6.67359 53.4756 6.32691 54.2267 5.69133 54.8912C5.02686 55.5556 4.24683 55.8734 3.38013 55.8734C2.42676 55.8734 1.61784 55.5556 0.98226 54.8912C0.31779 54.2267 0 53.4756 0 52.58V42.4974V33.0792C0 32.1836 0.31779 31.4325 0.98226 30.768C1.61784 30.1036 2.39787 29.7858 3.29346 29.7858C4.24683 29.7858 5.02686 30.1036 5.69133 30.768C6.32691 31.4325 6.67359 32.1836 6.67359 33.0792V42.4974Z"
    fill="white"
  />
<path
    d="M220.46 25.6537H224.707C225.602 25.6537 226.382 25.3359 227.018 24.6714C227.682 24.0359 228 23.2269 228 22.2736C228 21.378 227.682 20.5979 227.018 19.9624C226.382 19.2979 225.602 18.9801 224.707 18.9801H220.46H205.177C202.288 18.9801 199.89 19.9046 197.983 21.7247C196.105 23.6025 195.152 26.0293 195.152 29.0338V52.5792C195.152 53.4748 195.47 54.2548 196.134 54.8904C196.77 55.5548 197.579 55.8726 198.532 55.8726C199.399 55.8726 200.179 55.5548 200.843 54.8904C201.479 54.2548 201.826 53.4748 201.826 52.5792V29.0338C201.826 26.7804 202.895 25.6537 205.09 25.6537H220.46Z"
    fill="white"
  />
<path
    d="M105.68 43.7974V52.58C105.68 53.4756 105.362 54.2267 104.697 54.8912C104.062 55.5556 103.282 55.8734 102.386 55.8734C101.462 55.8734 100.653 55.5556 100.017 54.8912C99.3527 54.2267 99.0349 53.4756 99.0349 52.58V43.7974V33.0792C99.0349 32.1836 99.3527 31.4325 100.017 30.768C100.653 30.1036 101.433 29.7858 102.299 29.7858C103.253 29.7858 104.062 30.1036 104.697 30.768C105.362 31.4325 105.68 32.1836 105.68 33.0792V43.7974Z"
    fill="white"
  />
<path
    d="M106.575 25.6537H102.299C101.433 25.6537 100.653 25.3359 100.017 24.6714C99.3527 24.0359 99.0349 23.2269 99.0349 22.2736C99.0349 21.378 99.3527 20.5979 100.017 19.9624C100.653 19.2979 101.433 18.9801 102.299 18.9801H106.575H128.272C131.161 18.9801 133.558 19.9046 135.465 21.7247C137.343 23.6025 138.296 26.0293 138.296 29.0338V52.5792C138.296 53.4748 137.979 54.2259 137.314 54.8904C136.679 55.5259 135.87 55.8726 134.916 55.8726C134.021 55.8726 133.27 55.5259 132.605 54.8904C131.97 54.2259 131.652 53.4748 131.652 52.5792V29.0338C131.652 26.7804 130.554 25.6537 128.358 25.6537H106.575Z"
    fill="white"
  />
<path
    d="M62.2583 55.8726H59.3982C56.5092 55.8726 54.0535 54.8904 52.0601 52.9258C50.2689 51.0769 49.4022 48.7079 49.4022 45.8189V29.0338C49.4022 26.4915 50.1245 24.2959 51.5979 22.4758C53.4468 20.1357 55.9891 18.9801 59.3115 18.9801H78.35H81.8457C84.7347 18.9801 87.1903 19.9624 89.2126 21.9269C90.9749 23.747 91.8705 26.1448 91.8705 29.0338V32.7029V45.8767C91.8705 48.3901 91.1194 50.5569 89.646 52.3769C87.7392 54.717 85.1391 55.8726 81.8457 55.8726H59.3982H62.2583ZM56.0469 42.121V46.0211C56.0469 47.3212 56.4803 48.2457 57.3759 48.7946C58.0981 49.0546 58.7626 49.199 59.3982 49.199H62.2583H81.9612C83.3191 49.199 84.2724 48.7368 84.8214 47.8412C85.0814 47.1478 85.1969 46.4545 85.1969 45.8189V32.7029V28.8316C85.1969 27.5315 84.7636 26.5782 83.868 26.0582C83.1746 25.7981 82.4813 25.6537 81.8457 25.6537H78.35H59.1959C57.8959 25.6537 56.9714 26.1159 56.4225 27.0115C56.1625 27.7049 56.0469 28.3982 56.0469 29.0338V46.0211V42.121Z"
    fill="white"
  />
<path
    d="M158.375 55.8726H155.544C152.626 55.8726 150.17 54.8904 148.177 52.9258C146.386 51.0769 145.519 48.7079 145.519 45.8189V29.0338C145.519 26.4915 146.241 24.2959 147.715 22.4758C149.564 20.1357 152.135 18.9801 155.428 18.9801H174.467H177.963C180.852 18.9801 183.307 19.9624 185.33 21.9269C187.092 23.747 187.987 26.1448 187.987 29.0338V32.7029V45.8767C187.987 48.3901 187.236 50.5569 185.763 52.3769C183.856 54.717 181.256 55.8726 177.963 55.8726H155.544H158.375ZM152.164 42.121V46.0211C152.164 47.3212 152.597 48.2457 153.493 48.7946C154.215 49.0546 154.88 49.199 155.544 49.199H158.375H178.078C179.436 49.199 180.389 48.7368 180.938 47.8412C181.198 47.1478 181.314 46.4545 181.314 45.8189V32.7029V28.8316C181.314 27.5315 180.881 26.5782 180.014 26.0582C179.292 25.7981 178.598 25.6537 177.963 25.6537H174.467H155.313C154.013 25.6537 153.088 26.1159 152.539 27.0115C152.279 27.7049 152.164 28.3982 152.164 29.0338V46.0211V42.121Z"
    fill="white"
  />
</svg>
